<?xml version="1.0" encoding="UTF-8" standalone="no"?>
<!-- Created with Inkscape (http://www.inkscape.org/) -->

<svg
   width="210mm"
   height="148mm"
   viewBox="0 0 793.70081 559.37006"
   version="1.1"
   id="svg5"
   xmlns:xlink="http://www.w3.org/1999/xlink"
   xmlns="http://www.w3.org/2000/svg"
   xmlns:svg="http://www.w3.org/2000/svg">
  <defs
     id="defs2">
    <linearGradient
       id="linearGradient29803">
      <stop
         style="stop-color:#be1e2d;stop-opacity:1;"
         offset="0"
         id="stop29799" />
      <stop
         style="stop-color:#be1e2d;stop-opacity:0;"
         offset="1"
         id="stop29801" />
    </linearGradient>
    <rect
       x="126.86298"
       y="155.29779"
       width="507.45193"
       height="113.01013"
       id="rect6846" />
    <linearGradient
       id="linearGradient950">
      <stop
         style="stop-color:#000000;stop-opacity:1;"
         offset="0"
         id="stop946" />
      <stop
         style="stop-color:#000000;stop-opacity:0;"
         offset="1"
         id="stop948" />
    </linearGradient>
    <linearGradient
       xlink:href="#linearGradient950"
       id="linearGradient952"
       x1="36.791702"
       y1="259.58587"
       x2="474.20411"
       y2="259.58587"
       gradientUnits="userSpaceOnUse"
       gradientTransform="matrix(1.0065877,0,0,1.0065877,-1.6831383,-1.7100685)" />
    <linearGradient
       xlink:href="#linearGradient950"
       id="linearGradient1014"
       gradientUnits="userSpaceOnUse"
       x1="36.791702"
       y1="259.58587"
       x2="474.20411"
       y2="259.58587"
       gradientTransform="matrix(0.80236962,0,0,0.80236962,50.494166,51.302056)" />
    <linearGradient
       xlink:href="#linearGradient29803"
       id="linearGradient29805"
       x1="444.22672"
       y1="165.78577"
       x2="491.8252"
       y2="144.64192"
       gradientUnits="userSpaceOnUse"
       gradientTransform="matrix(1.1022975,0,0,1.1022975,-18.718386,-34.062146)" />
  </defs>
  <g
     id="layer1">
    <text
       xml:space="preserve"
       id="text6844"
       style="fill:black;fill-opacity:1;line-height:1.25;stroke:none;font-family:sans-serif;font-style:normal;font-weight:normal;font-size:40px;white-space:pre;shape-inside:url(#rect6846)" />
    <g
       id="g31142"
       transform="matrix(1.0850795,0,0,1.0850795,102.4772,-4.5870982)">
      <circle
         style="fill:none;fill-rule:evenodd;stroke:url(#linearGradient952);stroke-width:5.32535;stroke-miterlimit:4;stroke-dasharray:none"
         id="path31"
         cx="255.49791"
         cy="259.58588"
         r="220.14697" />
      <circle
         style="fill:none;fill-rule:evenodd;stroke:url(#linearGradient1014);stroke-width:5.32535;stroke-miterlimit:4;stroke-dasharray:none"
         id="path31-7"
         cx="255.49791"
         cy="259.58588"
         r="175.48322" />
      <circle
         style="fill:none;fill-rule:evenodd;stroke:none;stroke-width:4.52447;stroke-miterlimit:4;stroke-dasharray:none"
         id="path31-7-5"
         cx="255.49791"
         cy="259.58588"
         r="187.00935" />
      <g
         aria-label="I.S.I.S.S. Antonio Scarpa - Motta di Livenza - Oderzo"
         transform="matrix(0.84278187,0.64371759,-0.64328027,0.84335481,207.25673,-124.70124)"
         id="text10724"
         style="font-size:34.0519px;line-height:1.25">
        <path
           d="m 455.77204,263.62587 -0.0944,3.35731 -24.81416,-0.69778 0.0944,-3.35731 z"
           style="font-size:34.0519px"
           id="path1554" />
        <path
           d="m 434.67265,273.62404 -0.30466,3.49503 -4.20727,-0.36675 0.30466,-3.49502 z"
           style="font-size:34.0519px"
           id="path1556" />
        <path
           d="m 450.46157,302.67213 -3.22295,-0.58441 q 1.24096,-1.71825 1.98527,-3.30689 0.74431,-1.58864 1.02613,-3.14285 0.48948,-2.69942 -0.29058,-4.36169 -0.78303,-1.64591 -2.71352,-1.99596 -1.61966,-0.29368 -2.62905,0.52027 -0.99599,0.83328 -1.9956,3.4571 l -0.77092,1.92177 q -1.37392,3.56983 -3.4746,4.99701 -2.08727,1.44651 -5.06482,0.9066 -3.55014,-0.64374 -4.94936,-3.36457 -1.40219,-2.70447 -0.5686,-7.30166 0.31446,-1.73417 1.06308,-3.62619 0.74566,-1.87566 1.8943,-3.83033 l 3.40291,0.61704 q -1.49373,1.8076 -2.41639,3.63427 -0.92265,1.82667 -1.26084,3.69172 -0.5132,2.8303 0.32043,4.56988 0.83363,1.73957 2.89501,2.11336 1.79961,0.32631 3.01567,-0.60225 1.21308,-0.9122 2.17709,-3.3397 l 0.75753,-1.9411 q 1.40664,-3.56389 3.27683,-4.93148 1.87019,-1.36758 4.66777,-0.86031 3.2393,0.58738 4.69201,3.19962 1.44974,2.6286 0.72294,6.63683 -0.31148,1.71781 -0.94568,3.4447 -0.63419,1.72689 -1.59406,3.47922 z"
           style="font-size:34.0519px"
           id="path1558" />
        <path
           d="m 429.07431,306.32445 -0.94372,3.37897 -4.06757,-1.13604 0.94372,-3.37897 z"
           style="font-size:34.0519px"
           id="path1560" />
        <path
           d="m 445.43852,323.36258 -1.09557,3.17492 -23.46616,-8.09744 1.09557,-3.17492 z"
           style="font-size:34.0519px"
           id="path1562" />
        <path
           d="m 422.30735,326.58527 -1.3408,3.24195 -3.90263,-1.61404 1.3408,-3.24196 z"
           style="font-size:34.0519px"
           id="path1564" />
        <path
           d="m 428.62525,359.04014 -2.89775,-1.52707 q 1.70045,-1.26524 2.88827,-2.5563 1.18782,-1.29107 1.92422,-2.68846 1.27902,-2.42705 1.03526,-4.247 -0.25151,-1.80524 -1.98722,-2.71993 -1.45623,-0.76741 -2.66375,-0.29489 -1.20057,0.49498 -2.94333,2.69644 l -1.31343,1.60076 q -2.38437,2.99101 -4.81711,3.71999 -2.42579,0.75144 -5.1029,-0.65936 -3.19194,-1.6821 -3.70766,-4.69785 -0.52347,-3.00104 1.65473,-7.13438 0.82167,-1.5592 2.10489,-3.13829 1.27547,-1.56438 2.95902,-3.08286 l 3.05955,1.61234 q -1.96839,1.27439 -3.39791,2.7388 -1.42952,1.4644 -2.31321,3.14127 -1.34102,2.54473 -1.06944,4.45452 0.27159,1.90979 2.12497,2.8865 1.61804,0.85267 3.05713,0.33303 1.43134,-0.50493 3.08108,-2.52987 l 1.30648,-1.62322 q 2.41378,-2.9755 4.6088,-3.717 2.19501,-0.74149 4.71032,0.58403 2.91246,1.53482 3.51186,4.46311 0.59164,2.943 -1.3075,6.54681 -0.81392,1.54448 -1.93832,3.00053 -1.12441,1.45604 -2.56705,2.83835 z"
           style="font-size:34.0519px"
           id="path1566" />
        <path
           d="m 407.13223,356.08715 -1.91533,2.9393 -3.53831,-2.30566 1.91534,-2.9393 z"
           style="font-size:34.0519px"
           id="path1568" />
        <path
           d="m 407.37978,389.14392 -2.56811,-2.03315 q 1.90385,-0.93152 3.30853,-1.98255 1.40467,-1.05102 2.38512,-2.28945 1.7029,-2.15096 1.79744,-3.98472 0.0842,-1.82073 -1.45404,-3.03856 -1.29057,-1.02173 -2.56433,-0.77895 -1.27104,0.26613 -3.38837,2.11019 l -1.58501,1.33239 q -2.893,2.50237 -5.41824,2.77229 -2.52252,0.29328 -4.89509,-1.58507 -2.82883,-2.23956 -2.78207,-5.29873 0.0364,-3.04614 2.93652,-6.70928 1.09398,-1.38183 2.64531,-2.69847 1.54102,-1.3036 3.47475,-2.48715 l 2.7115,2.14668 q -2.16892,0.89132 -3.84301,2.06836 -1.67409,1.17704 -2.85063,2.66315 -1.78546,2.25525 -1.86914,4.18244 -0.0837,1.92719 1.55887,3.22758 1.43397,1.13526 2.94401,0.88868 1.49971,-0.23354 3.4932,-1.92116 l 1.5823,-1.35575 q 2.91907,-2.48173 5.21291,-2.8076 2.29384,-0.32587 4.52302,1.43895 2.58114,2.04347 2.6327,5.03203 0.0412,3.0016 -2.4873,6.19544 -1.08366,1.36879 -2.45629,2.59364 -1.37263,1.22484 -3.04455,2.31877 z"
           style="font-size:34.0519px"
           id="path1570" />
        <path
           d="m 386.79919,382.29581 -2.42096,2.53909 -3.05653,-2.91433 2.42095,-2.53909 z"
           style="font-size:34.0519px"
           id="path1572" />
        <path
           d="m 374.81631,416.35062 -3.86446,-12.58718 -7.26025,5.53283 z m 3.51311,1.48278 -3.02841,2.30787 -22.57122,-14.00979 2.77715,-2.11638 5.65841,3.69437 8.90009,-6.78251 -2.06135,-6.43559 2.81682,-2.14662 z"
           style="font-size:34.0519px"
           id="path1574" />
        <path
           d="m 341.88389,425.35319 -5.61914,-9.73437 2.6496,-1.52947 5.56926,9.64798 q 1.32166,2.28959 2.87113,2.91182 1.54947,0.62224 3.33507,-0.40849 2.14559,-1.23854 2.59432,-3.3214 0.44873,-2.08285 -0.9145,-4.44445 l -5.2617,-9.11518 2.66399,-1.53778 9.30981,16.12797 -2.66399,1.53778 -1.44635,-2.5056 q -0.11085,2.00301 -0.97683,3.46281 -0.88038,1.46811 -2.56518,2.44065 -2.77919,1.60428 -5.20227,0.6992 -2.41476,-0.89067 -4.34322,-4.23147 z"
           style="font-size:34.0519px"
           id="path1576" />
        <path
           d="m 337.79878,441.24872 -2.17372,-4.81986 -5.74443,2.59068 -0.97748,-2.16742 5.74443,-2.59069 -4.15604,-9.21533 q -0.93647,-2.07649 -1.76386,-2.41468 -0.84255,-0.33137 -2.58558,0.45472 l -2.86464,1.29193 -1.05268,-2.33415 2.86464,-1.29192 q 3.2284,-1.45598 4.99611,-0.81228 1.77455,0.65887 3.21002,3.84179 l 4.15603,9.21534 2.04617,-0.9228 0.97749,2.16742 -2.04617,0.92281 2.17372,4.81986 z"
           style="font-size:34.0519px"
           id="path1578" />
        <path
           d="m 316.93018,441.50129 q 2.33148,-0.78718 3.06928,-3.07197 0.74313,-2.26903 -0.32594,-5.43544 -1.06907,-3.1664 -3.02507,-4.54168 -1.96643,-1.35422 -4.31367,-0.56172 -2.31572,0.78185 -3.05353,3.06664 -0.73781,2.28479 0.32594,5.43544 1.05843,3.1349 3.03019,4.50486 1.97707,1.38572 4.2928,0.60387 z m 0.82972,2.4575 q -3.78078,1.2765 -6.7687,-0.45234 -2.98792,-1.72884 -4.45589,-6.07673 -1.46266,-4.33215 -0.1395,-7.53408 1.32847,-3.18617 5.10925,-4.46267 3.79653,-1.28182 6.78445,0.44702 2.97749,1.74991 4.44014,6.08206 1.46797,4.34789 0.15526,7.52875 -1.32848,3.18618 -5.12501,4.46799 z"
           style="font-size:34.0519px"
           id="path1580" />
        <path
           d="m 285.75289,444.03871 -2.27603,-11.00693 2.99597,-0.61951 2.25583,10.90924 q 0.53534,2.5889 1.81083,3.66647 1.2755,1.07756 3.29452,0.66007 2.42609,-0.50167 3.50652,-2.33806 1.08043,-1.83639 0.52826,-4.50671 l -2.13125,-10.30678 3.01225,-0.62288 3.77094,18.23633 -3.01225,0.62288 -0.58585,-2.83314 q -0.73458,1.86674 -2.01537,2.98052 -1.29708,1.11714 -3.20212,1.51107 -3.14251,0.64981 -5.1585,-0.97076 -2.01263,-1.60428 -2.79375,-5.38181 z"
           style="font-size:34.0519px"
           id="path1582" />
        <path
           d="m 279.54426,452.22044 -3.03906,0.35177 -2.14121,-18.49862 3.03906,-0.35177 z m 0.83354,7.20125 -3.03906,0.35177 -0.44544,-3.84837 3.03906,-0.35177 z"
           style="font-size:34.0519px"
           id="path1584" />
        <path
           d="m 261.26991,451.46109 q 2.45969,-0.0731 3.8317,-2.04341 1.37251,-1.95371 1.27326,-5.29424 -0.0992,-3.34054 -1.56918,-5.22644 -1.48606,-1.86879 -3.96238,-1.79522 -2.44307,0.0726 -3.81508,2.04291 -1.37201,1.97033 -1.27326,5.29425 0.0983,3.30729 1.58481,5.1927 1.48705,1.90203 3.93013,1.82945 z m 0.077,2.59265 q -3.9887,0.1185 -6.3426,-2.40651 -2.35391,-2.52501 -2.49018,-7.11201 -0.13578,-4.57038 2.06359,-7.2473 2.19985,-2.66029 6.18855,-2.77879 4.00532,-0.11899 6.35922,2.40602 2.33778,2.54212 2.47356,7.1125 0.13627,4.587 -2.04696,7.24681 -2.19986,2.66029 -6.20518,2.77928 z"
           style="font-size:34.0519px"
           id="path1586" />
        <path
           d="m 217.89308,455.67506 0.49364,-3.23809 q 1.75244,1.1922 3.36136,1.8916 1.60891,0.69939 3.17043,0.93744 2.7121,0.41346 4.3518,-0.41299 1.62327,-0.82895 1.91895,-2.76851 0.24808,-1.62727 -0.59391,-2.6134 -0.86093,-0.9722 -3.51179,-1.89771 l -1.94267,-0.71663 q -3.60701,-1.2731 -5.09264,-3.33286 -1.50456,-2.04582 -1.04851,-5.03735 0.54376,-3.56683 3.22421,-5.04193 2.66402,-1.4776 7.28282,-0.77347 1.74232,0.26562 3.65462,0.9608 1.89586,0.69268 3.88202,1.78596 l -0.5212,3.4189 q -1.84885,-1.44237 -3.70072,-2.31335 -1.85186,-0.87098 -3.72568,-1.15664 -2.8436,-0.4335 -4.55907,0.44867 -1.71547,0.88217 -2.0312,2.95323 -0.27564,1.80807 0.68671,2.99756 0.94592,1.18698 3.39954,2.08242 l 1.96161,0.7027 q 3.602,1.30598 5.02158,3.13702 1.41958,1.83104 0.99109,4.64176 -0.49615,3.25453 -3.06656,4.78004 -2.58684,1.523 -6.6139,0.90908 -1.72589,-0.26311 -3.46991,-0.84855 -1.74402,-0.58543 -3.52262,-1.4957 z"
           style="font-size:34.0519px"
           id="path1588" />
        <path
           d="m 197.40956,444.23875 0.75396,-2.75865 q 1.06253,1.03158 2.23753,1.71469 1.15457,0.69477 2.43767,1.04545 2.87092,0.78465 4.95847,-0.60979 2.08316,-1.37839 2.98179,-4.66632 0.89862,-3.28792 -0.18948,-5.5503 -1.09249,-2.24634 -3.96341,-3.03099 -1.28309,-0.35068 -2.62616,-0.35579 -1.36349,0.007 -2.803,0.3543 l 0.7452,-2.72657 q 1.39279,-0.23986 2.8029,-0.16472 1.39407,0.0707 2.88567,0.47842 4.05778,1.10903 5.75056,4.31233 1.69277,3.20329 0.50922,7.53373 -1.20109,4.39459 -4.29511,6.25513 -3.11005,1.85615 -7.31218,0.70767 -1.36328,-0.3726 -2.58351,-1.01637 -1.22461,-0.62772 -2.29012,-1.52222 z"
           style="font-size:34.0519px"
           id="path1590" />
        <path
           d="m 185.74075,430.81665 q 3.4427,1.3768 5.08525,1.12042 1.64256,-0.25638 2.40196,-2.15527 0.60505,-1.51293 -0.0249,-2.80348 -0.65156,-1.28128 -2.36519,-1.9666 -2.36203,-0.94462 -4.44913,0.15469 -2.10871,1.10857 -3.22003,3.88743 l -0.25314,0.63296 z m -6.13502,-1.09257 3.94519,-9.86496 2.84062,1.13602 -1.04958,2.62448 q 1.60235,-1.18572 3.35606,-1.36184 1.74753,-0.16067 3.84712,0.679 2.65535,1.06193 3.63734,3.17373 0.96037,2.12108 -0.0398,4.62205 -1.16689,2.91781 -3.70479,3.62194 -2.55335,0.69796 -6.42832,-0.85171 l -3.98303,-1.5929 -0.11114,0.27789 q -0.7841,1.96064 0.0867,3.54449 0.84918,1.59311 3.18034,2.52538 1.48206,0.59271 3.02893,0.79947 1.54687,0.20675 3.12768,0.0152 l -1.04958,2.62448 q -1.80004,-0.0215 -3.38397,-0.3147 -1.5901,-0.27777 -2.97953,-0.83343 -3.75146,-1.50028 -4.82611,-4.18636 -1.07465,-2.68609 0.50589,-6.63825 z"
           style="font-size:34.0519px"
           id="path1592" />
        <path
           d="m 161.03941,426.0588 q 0.31884,0.50357 0.80297,0.90578 0.46171,0.40927 1.11052,0.74729 2.30034,1.19842 4.32257,0.33966 1.9998,-0.85169 3.45943,-3.65339 l 4.53251,-8.7 2.72796,1.42122 -8.60409,16.51524 -2.72796,-1.42121 1.3367,-2.56576 q -1.63884,1.0585 -3.38662,1.0666 -1.75547,0.0228 -3.71665,-0.9989 -0.28017,-0.14596 -0.59628,-0.36689 -0.32379,-0.20618 -0.69826,-0.49501 z"
           style="font-size:34.0519px"
           id="path1594" />
        <path
           d="m 161.52295,411.18157 5.42759,-8.25131 2.56985,1.69041 -14.12634,21.47564 -2.56986,-1.69041 1.55335,-2.36148 q -1.71942,0.85914 -3.38043,0.72183 -1.68404,-0.13256 -3.39264,-1.25646 -2.83379,-1.86402 -3.11771,-5.27482 -0.29781,-3.41994 2.11445,-7.08719 2.41226,-3.66725 5.67058,-4.74803 3.24442,-1.08992 6.0782,0.7741 1.70861,1.1239 2.50632,2.60389 0.77469,1.48476 0.66664,3.40383 z m -12.26853,-0.28856 q -1.85489,2.8199 -1.73883,5.18491 0.093,2.36977 2.12113,3.70382 2.0281,1.33406 4.25489,0.49022 2.20375,-0.83907 4.05864,-3.65897 1.85488,-2.81989 1.76185,-5.18966 -0.11606,-2.36501 -2.14416,-3.69907 -2.0281,-1.33405 -4.23186,-0.49497 -2.22678,0.84383 -4.08166,3.66372 z"
           style="font-size:34.0519px"
           id="path1596" />
        <path
           d="m 135.18994,399.92851 q 2.83003,2.39555 4.4693,2.67216 1.63927,0.27662 2.96058,-1.28434 1.05275,-1.24369 0.8636,-2.66727 -0.21258,-1.42163 -1.62125,-2.61403 -1.94169,-1.64359 -4.26941,-1.26129 -2.35116,0.38425 -4.28479,2.66859 l -0.44044,0.52032 z m -5.47393,-2.97796 6.86438,-8.10939 2.3351,1.9766 -1.8262,2.15743 q 1.89524,-0.61769 3.61454,-0.22975 1.70857,0.40062 3.43451,1.86159 2.18281,1.84769 2.446,4.16172 0.23975,2.31599 -1.50051,4.37189 -2.03032,2.39855 -4.66062,2.26332 -2.64299,-0.14597 -5.82837,-2.84231 l -3.27421,-2.77153 -0.19337,0.22843 q -1.36428,1.61173 -1.03948,3.38975 0.30136,1.77997 2.21767,3.40207 1.21831,1.03127 2.62024,1.71694 1.40194,0.68567 2.96211,1.00425 l -1.82621,2.15743 q -1.70072,-0.59004 -3.11044,-1.36944 -1.42047,-0.76672 -2.56264,-1.73353 -3.08385,-2.6104 -3.2532,-5.49852 -0.16935,-2.88812 2.5807,-6.13695 z"
           style="font-size:34.0519px"
           id="path1598" />
        <path
           d="m 117.56982,384.7145 -5.86288,-6.77808 2.06234,-1.78388 5.86288,6.77808 z"
           style="font-size:34.0519px"
           id="path1600" />
        <path
           d="m 88.660354,371.05133 -2.543822,-4.30998 11.32807,-14.04195 -17.784813,3.10232 -2.543822,-4.30999 21.3781,-12.61769 1.664893,2.82082 -18.772062,11.07957 17.916267,-3.14129 1.715605,2.90673 -11.40882,14.16684 18.77206,-11.07957 1.65644,2.8065 z"
           style="font-size:34.0519px"
           id="path1602" />
        <path
           d="m 77.854512,332.45128 q 0.934691,2.27635 3.261994,2.86651 2.311921,0.59647 5.40346,-0.67295 3.091539,-1.26941 4.338895,-3.30937 1.22566,-2.04903 0.284653,-4.34076 -0.928375,-2.26098 -3.255677,-2.85113 -2.327303,-0.59016 -5.403461,0.67294 -3.060777,1.25678 -4.301817,3.31212 -1.256422,2.06166 -0.328047,4.32264 z m -2.399403,0.98521 q -1.515714,-3.69139 0.01847,-6.78377 1.534182,-3.09238 5.77928,-4.83545 4.229717,-1.73676 7.509722,-0.62112 3.264623,1.12195 4.780338,4.81334 1.52203,3.70677 -0.01215,6.79915 -1.555879,3.08332 -5.785596,4.82008 -4.245098,1.74307 -7.503406,0.6365 -3.264624,-1.12196 -4.786654,-4.82873 z"
           style="font-size:34.0519px"
           id="path1604" />
        <path
           d="m 64.618679,317.38946 5.064304,-1.51953 -1.811006,-6.03575 2.277344,-0.68331 1.811006,6.03576 9.682694,-2.90526 q 2.181791,-0.65464 2.626085,-1.43024 0.439515,-0.79152 -0.109999,-2.62295 l -0.903114,-3.00992 2.452525,-0.73587 0.903114,3.00992 q 1.017795,3.39212 0.14673,5.05958 -0.886989,1.67223 -4.231341,2.67569 l -9.682694,2.90526 0.645082,2.14994 -2.277344,0.68331 -0.645082,-2.14994 -5.064303,1.51952 z"
           style="font-size:34.0519px"
           id="path1606" />
        <path
           d="m 60.783831,302.70184 5.165769,-1.12736 -1.343621,-6.15669 2.322971,-0.50696 1.343622,6.15669 9.876691,-2.15547 q 2.225505,-0.48569 2.727871,-1.225 0.498821,-0.75556 0.09113,-2.62368 l -0.670039,-3.07022 2.501662,-0.54596 0.670039,3.07022 q 0.755122,3.46009 -0.241039,5.05597 -1.012405,1.59942 -4.423762,2.34391 l -9.876691,2.15547 0.478599,2.19301 -2.322972,0.50696 -0.478599,-2.19301 -5.165769,1.12736 z"
           style="font-size:34.0519px"
           id="path1608" />
        <path
           d="m 71.783553,280.17009 q 0.433413,3.68238 1.442717,5.00337 1.009305,1.32099 3.040394,1.08193 1.618266,-0.19047 2.451628,-1.36002 0.814905,-1.18412 0.599171,-3.01705 -0.297364,-2.52648 -2.259566,-3.83577 -1.980659,-1.32385 -4.952985,-0.97401 l -0.67703,0.0797 z m -1.968267,-5.91253 10.551756,-1.24193 0.357614,3.03837 -2.807196,0.33041 q 1.806762,0.84207 2.798589,2.29905 0.975314,1.45892 1.239638,3.70468 0.334291,2.84022 -1.052707,4.71112 -1.405454,1.85633 -4.080547,2.17119 -3.120942,0.36733 -4.95107,-1.52672 -1.832072,-1.91056 -2.319904,-6.0553 l -0.501437,-4.26033 -0.297233,0.035 q -2.097141,0.24683 -3.073273,1.76802 -0.99459,1.50662 -0.701113,4.00008 0.186581,1.58524 0.743242,3.04321 0.556661,1.45797 1.479513,2.75566 l -2.807196,0.3304 q -0.840303,-1.59201 -1.338686,-3.12381 -0.514896,-1.52985 -0.689816,-3.01602 -0.472284,-4.01264 1.375118,-6.23907 1.847401,-2.22644 6.074708,-2.72399 z"
           style="font-size:34.0519px"
           id="path1610" />
        <path
           d="m 64.903851,242.64682 -10.055586,-0.63956 0.19419,-3.05318 25.819292,1.64217 -0.194189,3.05318 -2.787687,-0.1773 q 1.598125,1.06795 2.317272,2.59647 0.703609,1.51088 0.572743,3.56846 -0.214242,3.36845 -3.037457,5.32143 -2.822159,1.93639 -7.20281,1.65777 -4.380652,-0.27862 -6.934746,-2.55695 -2.553038,-2.29492 -2.338797,-5.66338 0.130867,-2.05757 1.036815,-3.46608 0.890411,-1.42615 2.61096,-2.28303 z m 5.826289,10.8167 q 3.368455,0.21424 5.380883,-1.04058 1.99689,-1.27248 2.150975,-3.69511 0.154085,-2.42264 -1.665502,-3.93785 -1.83618,-1.51626 -5.204635,-1.73051 -3.368455,-0.21424 -5.365345,1.05824 -2.013483,1.27142 -2.167568,3.69405 -0.154085,2.42263 1.682095,3.9389 1.820642,1.49862 5.189097,1.71286 z"
           style="font-size:34.0519px"
           id="path1612" />
        <path
           d="m 63.399868,231.54229 0.462291,-3.02422 18.4083,2.81395 -0.462291,3.02422 z m -7.166088,-1.09543 0.462291,-3.02422 3.829584,0.5854 -0.462291,3.02422 z"
           style="font-size:34.0519px"
           id="path1614" />
        <path
           d="m 62.042749,207.11056 0.977203,-3.21333 21.045732,6.40019 3.516963,-11.56481 2.704289,0.8224 -4.494167,14.77814 z"
           style="font-size:34.0519px"
           id="path1616" />
        <path
           d="m 74.391539,189.59992 1.125816,-2.84468 17.315399,6.8528 -1.125817,2.84467 z m -6.740638,-2.6677 1.125816,-2.84467 3.602222,1.42562 -1.125816,2.84468 z"
           style="font-size:34.0519px"
           id="path1618" />
        <path
           d="m 77.583767,181.33644 1.444226,-2.90282 16.585288,1.75172 -11.400884,-12.1721 1.444226,-2.90282 13.561971,14.54727 -1.851572,3.72157 z"
           style="font-size:34.0519px"
           id="path1620" />
        <path
           d="m 104.81025,150.93419 1.25258,0.81872 -7.695979,11.77431 q 2.753509,1.5614 5.073159,1.05149 2.31483,-0.53292 3.97956,-3.07985 0.96427,-1.47526 1.50301,-3.08963 0.54783,-1.62828 0.71561,-3.46525 l 2.42167,1.58286 q -0.31606,1.75992 -0.95595,3.40748 -0.63989,1.64757 -1.61326,3.13675 -2.43797,3.72993 -6.03733,4.49588 -3.590269,0.75203 -7.292356,-1.66775 -3.827347,-2.50165 -4.721742,-6.02606 -0.899216,-3.54742 1.393204,-7.05466 2.055901,-3.14539 5.279569,-3.64045 3.218845,-0.51807 6.698255,1.75616 z m -2.42538,2.06961 q -2.11976,-1.3458 -4.127389,-1.00936 -1.998532,0.32252 -3.235712,2.21532 -1.400923,2.14331 -1.036102,4.22908 0.373918,2.07186 2.445546,3.70401 z"
           style="font-size:34.0519px"
           id="path1622" />
        <path
           d="m 117.67313,133.36272 8.59894,7.23816 -1.97015,2.34054 -8.52262,-7.17392 q -2.02253,-1.70247 -3.69129,-1.75969 -1.66877,-0.0572 -2.99648,1.52011 -1.59539,1.89533 -1.30779,4.00647 0.2876,2.11115 2.37374,3.86715 l 8.05197,6.77775 -1.98086,2.35326 -14.24677,-11.99222 1.98085,-2.35326 2.21334,1.86307 q -0.57807,-1.92098 -0.26113,-3.58846 0.32764,-1.68019 1.5804,-3.16847 2.06652,-2.45503 4.65299,-2.42946 2.57374,0.0149 5.52486,2.49897 z"
           style="font-size:34.0519px"
           id="path1624" />
        <path
           d="m 116.76708,123.64393 10.53977,-10.00449 1.92306,2.02595 0.86968,17.62886 8.34498,-7.92118 1.68268,1.77271 -10.84125,10.29066 -1.92306,-2.02595 -0.86968,-17.62886 -8.0435,7.63501 z"
           style="font-size:34.0519px"
           id="path1626" />
        <path
           d="m 144.78334,111.54859 q -2.95276,2.24254 -3.57862,3.78267 -0.62587,1.54013 0.61105,3.16878 0.98551,1.29763 2.4162,1.42201 1.43387,0.10109 2.90363,-1.01515 2.02589,-1.53861 2.15799,-3.89382 0.13529,-2.37851 -1.67483,-4.7619 l -0.4123,-0.54288 z m 4.0952,-4.69696 6.42593,8.46105 -2.43635,1.85034 -1.70956,-2.25098 q 0.19155,1.98413 -0.56036,3.57823 -0.76196,1.58086 -2.56275,2.94851 -2.27746,1.72967 -4.59345,1.48426 -2.31281,-0.2687 -3.94192,-2.41376 -1.90062,-2.50256 -1.19765,-5.04079 0.71622,-2.54828 4.03973,-5.0724 l 3.4162,-2.59451 -0.18101,-0.23834 q -1.27714,-1.68161 -3.08328,-1.75052 -1.80294,-0.0922 -3.80234,1.42628 -1.27115,0.9654 -2.24479,2.18506 -0.97365,1.21966 -1.62331,2.67347 l -1.70956,-2.25098 q 0.94516,-1.53208 2.01199,-2.739 1.05678,-1.22017 2.24847,-2.12523 3.21759,-2.44366 6.0736,-1.98203 2.85602,0.46162 5.43041,3.85134 z"
           style="font-size:34.0519px"
           id="path1628" />
        <path
           d="m 163.46881,97.65084 7.89237,-4.245727 1.29183,2.401389 -7.89236,4.245728 z"
           style="font-size:34.0519px"
           id="path1630" />
        <path
           d="m 193.27197,71.537028 q -3.4728,1.14892 -4.66844,4.416643 -1.17986,3.2625 0.29807,7.729787 1.4727,4.4515 4.36549,6.366632 2.90858,1.909909 6.38138,0.760989 3.47281,-1.148919 4.63688,-4.406198 1.17986,-3.2625 -0.29285,-7.714001 -1.47793,-4.467286 -4.37072,-6.382418 -2.87701,-1.920354 -6.34981,-0.771434 z m -0.85647,-2.588816 q 4.95664,-1.639822 9.02622,0.709107 4.06437,2.333144 5.91308,7.921198 1.8435,5.572268 -0.0223,9.884805 -1.87097,4.296752 -6.82761,5.936573 -4.97242,1.645044 -9.05257,-0.682877 -4.06436,-2.333143 -5.91308,-7.921197 -1.84871,-5.588055 0.0223,-9.884806 1.88153,-4.317759 6.85395,-5.962803 z"
           style="font-size:34.0519px"
           id="path1632" />
        <path
           d="m 225.51688,70.587682 -1.81023,-9.911959 3.00958,-0.549639 4.64803,25.450508 -3.00957,0.549639 -0.50185,-2.74787 q -0.64995,1.808893 -1.9593,2.876213 -1.29597,1.047976 -3.32416,1.418385 -3.32034,0.606395 -5.89788,-1.660979 -2.56118,-2.270361 -3.34979,-6.588443 -0.78861,-4.318081 0.80472,-7.347182 1.6097,-3.032089 4.93004,-3.638484 2.02819,-0.370409 3.61392,0.168182 1.5991,0.519248 2.84649,1.981629 z m -9.08746,8.268294 q 0.60639,3.320342 2.31048,4.969746 1.71746,1.63006 4.10549,1.193934 2.38803,-0.436127 3.41844,-2.568031 1.02742,-2.148261 0.42103,-5.468603 -0.6064,-3.320343 -2.32385,-4.950403 -1.72045,-1.646417 -4.10848,-1.21029 -2.38803,0.436126 -3.41545,2.584387 -1.01406,2.128917 -0.40766,5.44926 z"
           style="font-size:34.0519px"
           id="path1634" />
        <path
           d="m 252.93817,73.843564 0.0892,1.493761 -14.04135,0.838468 q 0.38748,3.141602 2.17952,4.700243 1.80764,1.541054 4.84496,1.359683 1.75931,-0.105056 3.37668,-0.634706 1.63397,-0.53064 3.20897,-1.49083 l 0.17245,2.887937 q -1.60151,0.795207 -3.30583,1.263423 -1.70432,0.468215 -3.48023,0.574263 -4.44809,0.265614 -7.20848,-2.167968 -2.7438,-2.434574 -3.00743,-6.849466 -0.27255,-4.564268 2.02429,-7.383122 2.31244,-2.836443 6.49497,-3.086199 3.751,-0.223988 6.06995,2.069389 2.33456,2.275789 2.58233,6.425124 z m -3.10743,-0.713894 q -0.18285,-2.504216 -1.64962,-3.915716 -1.45019,-1.41249 -3.70742,-1.277701 -2.55599,0.152629 -4.01332,1.68877 -1.44073,1.535149 -1.5165,4.171404 z"
           style="font-size:34.0519px"
           id="path1636" />
        <path
           d="m 269.95979,68.752928 q -0.50354,-0.318889 -1.11317,-0.475469 -0.59237,-0.172555 -1.32341,-0.200696 -2.59188,-0.09977 -4.05274,1.541197 -1.4436,1.624992 -1.56512,4.781765 l -0.37734,9.802614 -3.0737,-0.118317 0.7163,-18.608351 3.0737,0.118317 -0.11128,2.89094 q 1.02888,-1.657595 2.60538,-2.412232 1.57713,-0.771252 3.78687,-0.686191 0.31568,0.01215 0.6959,0.07671 0.38086,0.04794 0.84287,0.148919 z"
           style="font-size:34.0519px"
           id="path1638" />
        <path
           d="m 273.62536,66.188139 14.41172,1.865189 -0.35853,2.770215 -13.12859,11.797165 11.41065,1.476785 -0.31371,2.423939 -14.82395,-1.91854 0.35853,-2.770216 13.12859,-11.797165 -10.99842,-1.423433 z"
           style="font-size:34.0519px"
           id="path1640" />
        <path
           d="m 301.1676,73.0952 q -2.3906,-0.583524 -4.23708,0.951112 -1.84255,1.518483 -2.63504,4.76517 -0.79248,3.246687 0.12314,5.455529 0.93571,2.196632 3.34246,2.784098 2.37444,0.579581 4.22093,-0.955055 1.84649,-1.534635 2.63503,-4.76517 0.7846,-3.214382 -0.14717,-5.427166 -0.92783,-2.228937 -3.30227,-2.808518 z m 0.61506,-2.519817 q 3.87664,0.946254 5.47449,4.006225 1.59786,3.05997 0.50966,7.518108 -1.08425,4.441985 -3.91617,6.437801 -2.82798,1.979664 -6.70462,1.033409 -3.8928,-0.950197 -5.49065,-4.010167 -1.57775,-3.072181 -0.4935,-7.514166 1.08819,-4.458137 3.90002,-6.441744 2.82798,-1.979663 6.72077,-1.029466 z"
           style="font-size:34.0519px"
           id="path1642" />
      </g>
      <path
         class="cls-4"
         d="m 152.27511,379.91501 a 33.845061,43.63355 3.2933047 0 1 -16.95294,-6.0005 C 108.0702,350.93117 143.64799,271.50936 160.17624,238.37742 191.8365,174.88871 252.10769,85.236383 280.56397,94.325259 c 19.04017,5.909641 14.02188,47.683591 7.09602,105.387121 -4.41089,36.7244 -9.42918,78.49835 -7.41763,112.41581 28.58372,-18.94627 60.84871,-42.17978 96.33036,-69.73183 l 4.66511,6.79283 c -36.87397,28.56895 -70.45689,52.77811 -100.2309,72.38465 2.67474,25.72486 10.26191,45.85702 26.49987,54.07695 35.39581,17.93219 104.52618,-23.55114 157.31208,-72.70626 33.8274,-31.45814 45.85655,-51.93552 44.94623,-56.25426 -3.65929,-2.28256 -23.73225,4.69573 -37.09041,9.34954 -28.8058,9.99991 -58.70993,20.34233 -69.46305,7.1236 -9.73012,-11.8078 -8.41502,-42.72468 114.55496,-173.738065 l 5.65269,5.933814 c -41.14074,43.784381 -71.73211,79.671571 -90.95649,106.652291 -27.81537,39.08209 -26.4933,51.61954 -23.22804,55.58781 7.42811,9.06133 38.4007,-1.71822 61.01827,-9.77465 26.90084,-9.38774 41.18225,-13.88682 46.14626,-6.14831 2.48201,3.86925 3.64353,11.58312 -14.68984,34.13498 -36.97307,45.40701 -123.35235,114.97587 -178.25471,112.06599 a 60.276443,77.709275 3.2933047 0 1 -19.429,-4.87147 c -18.21639,-9.27867 -26.96884,-30.27601 -30.37715,-56.88324 -7.74489,4.98547 -15.2549,9.66282 -22.42285,14.03926 -45.50716,27.75629 -78.23981,40.82372 -98.95064,39.75319 z M 276.48487,102.05648 c -19.96041,-1.02001 -71.7376,65.04776 -109.378,140.21206 -32.02283,64.11218 -42.31021,112.01011 -26.91518,125.03234 15.9077,13.42694 62.59364,-4.62442 132.55591,-50.17039 -2.86238,-35.77953 2.43329,-79.66354 7.07999,-118.40823 5.4636,-45.39981 11.09511,-92.31548 -1.53488,-96.31268 a 11.102613,14.313652 3.2933047 0 0 -1.80784,-0.3531 z"
         id="path142"
         style="fill:url(#linearGradient29805);fill-opacity:1;stroke:none;stroke-width:0;stroke-linecap:round;stroke-miterlimit:4;stroke-dasharray:none;stroke-opacity:1" />
    </g>
  </g>
</svg>
